# xmcd
#
# Track frame offsets:
#       183
#       12450
#       28158
#       54083
#       67245
#       82423
#       91488
#       108018
#       121463
#       138213
#       150860
#       163543
#
# Disc length: 2412 seconds
#
# Revision: 0
# Processed by: cddbd v1.4PL0 Copyright (c) Steve Scherf et al.
# Submitted via: CD-DA_X-Tractor v0.23
#
DISCID=96096a0c
DTITLE=Foxfire - Carry Me Home
DYEAR=1990
DGENRE=
TTITLE0=Carry Me Home
TTITLE1=Sittin' By My Window
TTITLE2=Pipeliner Blues
TTITLE3=Hold What You Got
TTITLE4=Lonesome Pine
TTITLE5=My Rock
TTITLE6=Highland Dream
TTITLE7=Show Me The Way
TTITLE8=Over The Falls
TTITLE9=Each New Day Passing
TTITLE10=Move it On Over
TTITLE11=A Cowboy's Song
EXTD=
EXTT0=
EXTT1=
EXTT2=
EXTT3=
EXTT4=
EXTT5=
EXTT6=
EXTT7=
EXTT8=
EXTT9=
EXTT10=
EXTT11=
PLAYORDER=
